<svg width="30" height="35" viewBox="0 0 30 35" fill="none" xmlns="http://www.w3.org/2000/svg">
<path d="M29.3667 11.4631C27.6167 3.76305 20.9 0.296387 15 0.296387C15 0.296387 15 0.296387 14.9834 0.296387C9.10004 0.296387 2.3667 3.74639 0.616703 11.4464C-1.3333 20.0464 3.93337 27.3297 8.70004 31.913C10.4667 33.613 12.7334 34.4631 15 34.4631C17.2667 34.4631 19.5334 33.613 21.2834 31.913C26.05 27.3297 31.3167 20.0631 29.3667 11.4631ZM15 19.8131C12.1 19.8131 9.75004 17.4631 9.75004 14.5631C9.75004 11.6631 12.1 9.31305 15 9.31305C17.9 9.31305 20.25 11.6631 20.25 14.5631C20.25 17.4631 17.9 19.8131 15 19.8131Z" fill="white"/>
</svg>
