<svg width="28" height="35" viewBox="0 0 28 35" fill="none" xmlns="http://www.w3.org/2000/svg">
<path d="M21.0666 0.713379H6.93329C2.33329 0.713379 0.666626 2.38005 0.666626 7.06338V27.6967C0.666626 32.38 2.33329 34.0467 6.93329 34.0467H21.05C25.6666 34.0467 27.3333 32.38 27.3333 27.6967V7.06338C27.3333 2.38005 25.6666 0.713379 21.0666 0.713379ZM14 29.5467C12.4 29.5467 11.0833 28.23 11.0833 26.63C11.0833 25.03 12.4 23.7134 14 23.7134C15.6 23.7134 16.9166 25.03 16.9166 26.63C16.9166 28.23 15.6 29.5467 14 29.5467ZM17.3333 7.79671H10.6666C9.98329 7.79671 9.41663 7.23005 9.41663 6.54671C9.41663 5.86338 9.98329 5.29671 10.6666 5.29671H17.3333C18.0166 5.29671 18.5833 5.86338 18.5833 6.54671C18.5833 7.23005 18.0166 7.79671 17.3333 7.79671Z" fill="white"/>
</svg>
